<svg width="40" height="40" viewBox="0 0 40 40" fill="none" xmlns="http://www.w3.org/2000/svg">
<mask id="mask0_201_279" style="mask-type:alpha" maskUnits="userSpaceOnUse" x="3" y="3" width="34" height="34">
<path d="M33.6111 27.9712V25.7973C33.5026 24.8003 33.0462 23.8799 32.3289 23.2117C31.6117 22.5434 30.6838 22.1741 29.7222 22.1741C28.7607 22.1741 27.8327 22.5434 27.1155 23.2117C26.3982 23.8799 25.9418 24.8003 25.8333 25.7973V27.9712C25.4009 28.0017 24.9938 28.1947 24.6873 28.5145C24.3809 28.8343 24.1959 29.2591 24.1666 29.7103V34.7828C24.1685 35.2574 24.3407 35.714 24.6491 36.0627C24.9576 36.4115 25.3801 36.627 25.8333 36.6668H33.4722C33.927 36.6649 34.3646 36.4853 34.6988 36.1634C35.033 35.8415 35.2396 35.4006 35.2778 34.9277V29.8552C35.2759 29.3807 35.1038 28.924 34.7953 28.5753C34.4868 28.2265 34.0643 28.011 33.6111 27.9712ZM27.6389 25.7973C27.6518 25.5289 27.7167 25.266 27.8295 25.0244C27.9423 24.7828 28.1008 24.5676 28.2954 24.3916C28.4901 24.2156 28.7168 24.0825 28.962 24.0003C29.2072 23.918 29.4658 23.8884 29.7222 23.9132C29.9786 23.8884 30.2372 23.918 30.4824 24.0003C30.7276 24.0825 30.9543 24.2156 31.149 24.3916C31.3436 24.5676 31.5021 24.7828 31.6149 25.0244C31.7277 25.266 31.7926 25.5289 31.8055 25.7973V27.9712H27.6389V25.7973Z" fill="white"/>
<path d="M36.6666 19.2755V6.23205C36.6666 5.4633 36.374 4.72605 35.8531 4.18246C35.3321 3.63888 34.6256 3.3335 33.8889 3.3335H6.11109C5.37438 3.3335 4.66784 3.63888 4.14691 4.18246C3.62597 4.72605 3.33331 5.4633 3.33331 6.23205V32.319C3.33331 33.0877 3.62597 33.825 4.14691 34.3686C4.66784 34.9122 5.37438 35.2176 6.11109 35.2176H21.3889V32.319H6.11109V6.23205H33.8889V19.2755" fill="white"/>
<path d="M11.6666 9.1306H8.88887V12.0291H11.6666V9.1306Z" fill="white"/>
<path d="M31.1111 9.1306H14.4444V12.0291H31.1111V9.1306Z" fill="white"/>
<path d="M21.3889 26.5219H14.4444V29.4205H21.3889V26.5219Z" fill="white"/>
<path d="M11.6666 26.5219H8.88887V29.4205H11.6666V26.5219Z" fill="white"/>
<path d="M17.2222 14.9277H14.4444V17.8263H17.2222V14.9277Z" fill="white"/>
<path d="M31.1111 14.9277H20V17.8263H31.1111V14.9277Z" fill="white"/>
<path d="M23.9 20.7248H20V23.6234H23.0555V22.8987C23.0702 22.0901 23.371 21.3158 23.9 20.7248Z" fill="white"/>
<path d="M17.2222 20.7248H14.4444V23.6234H17.2222V20.7248Z" fill="white"/>
</mask>
<g mask="url(#mask0_201_279)">
<rect width="40" height="40" fill="white"/>
</g>
</svg>
