<svg width="24" height="24" viewBox="0 0 24 24" fill="none" xmlns="http://www.w3.org/2000/svg">
<mask id="mask0_154_582" style="mask-type:alpha" maskUnits="userSpaceOnUse" x="1" y="1" width="22" height="22">
<path d="M21.3716 1H2.6234C1.72763 1 1 1.71061 1 2.58537V21.4126C1 22.2884 1.72763 23 2.6234 23H21.3716C22.2694 23 23 22.2884 23 21.4126V2.58537C23.001 1.71061 22.2694 1 21.3716 1ZM7.52463 19.7472H4.26182V9.24812H7.52564L7.52463 19.7472ZM5.89423 7.81288C4.84832 7.81288 4.00159 6.96515 4.00159 5.92025C4.00159 4.87635 4.84832 4.02862 5.89423 4.02862C6.93713 4.02862 7.78486 4.87635 7.78486 5.92025C7.78486 6.96515 6.93713 7.81288 5.89423 7.81288ZM19.7472 19.7472H16.4864V14.6418C16.4864 13.4247 16.4644 11.8584 14.7909 11.8584C13.0934 11.8584 12.8322 13.1845 12.8322 14.5537V19.7472H9.5714V9.24812H12.7011V10.6824H12.7451C13.1805 9.85665 14.2454 8.9869 15.8328 8.9869C19.1367 8.9869 19.7472 11.1618 19.7472 13.9882V19.7472Z" fill="black"/>
</mask>
<g mask="url(#mask0_154_582)">
<rect width="24" height="24" fill="#999999"/>
</g>
</svg>
