<svg width="24" height="24" viewBox="0 0 24 24" fill="none" xmlns="http://www.w3.org/2000/svg">
<mask id="mask0_26_440" style="mask-type:alpha" maskUnits="userSpaceOnUse" x="0" y="3" width="24" height="18">
<path d="M15.2842 5.62041H8.64V12.0612H15.2842V5.62041ZM16.6989 5.62041V6.67347H21.0947V5.62041H16.6989ZM16.6989 8.21633V9.26939H21.0947V8.21633H16.6989ZM16.6989 10.7878V11.8408H21.0947V10.7878H16.6989ZM21.0695 13.3837H8.64V14.4367H21.0695V13.3837ZM2.75368 13.3837V14.4367H6.89684V13.3837H2.75368ZM2.75368 10.6898V11.7429H6.89684V10.6898H2.75368Z" fill="white"/>
<path d="M5.88632 3V8.11837H0V16.8367C0 18.4286 1.46526 20.0939 3.41053 20.0939H20.7663C22.56 20.0939 23.8484 18.4286 23.8484 16.8612V3H5.88632ZM1.33895 16.8367V9.39184L5.88632 9.36735V16.8367C5.88632 17.6694 5.22947 18.7469 3.46105 18.7469C2.37474 18.7714 1.33895 17.8408 1.33895 16.8367ZM20.7663 18.7469H6.39158C6.51789 18.7224 7.22526 18.1592 7.22526 16.8367V4.37143H22.3832V16.8612C22.3832 18.0122 21.6758 18.7469 20.7663 18.7469Z" fill="white"/>
</mask>
<g mask="url(#mask0_26_440)">
<rect width="24" height="24" fill="#00BCF2"/>
</g>
</svg>
