<svg width="22" height="22" viewBox="0 0 22 22" fill="none" xmlns="http://www.w3.org/2000/svg">
<mask id="mask0_201_329" style="mask-type:alpha" maskUnits="userSpaceOnUse" x="2" y="0" width="18" height="22">
<path d="M9.62307 2.56926C7.24642 2.56926 5.31926 4.49642 5.31926 6.87307C5.31926 9.21772 7.27842 11.1769 9.62307 11.1769C11.9677 11.1769 13.9269 9.21772 13.9269 6.87307C13.9266 4.49642 11.9677 2.56926 9.62307 2.56926ZM16.4961 6.87307C16.4961 8.60734 15.9181 10.117 14.7939 11.3695L18.7765 18.1783C19.1297 18.7884 19.2903 19.3664 19.2903 19.9125C19.2903 21.0687 18.3267 22 17.0742 22C16.175 22 15.372 21.4539 14.8262 20.4583L10.8756 13.6176C10.5224 13.7139 10.1049 13.7459 9.62307 13.7459C5.86534 13.7461 2.75 10.6308 2.75 6.87307C2.75 3.11534 5.86534 0 9.62307 0C13.2522 0 16.4961 3.05105 16.4961 6.87307Z" fill="black"/>
</mask>
<g mask="url(#mask0_201_329)">
<rect width="22" height="22" fill="white"/>
</g>
</svg>
