<svg width="40" height="40" viewBox="0 0 40 40" fill="none" xmlns="http://www.w3.org/2000/svg">
<mask id="mask0_201_334" style="mask-type:alpha" maskUnits="userSpaceOnUse" x="3" y="5" width="34" height="31">
<path d="M31.5135 21.4258L22.9238 30.0155H19.4578V26.5495L28.0475 17.9598L31.5135 21.4258V21.4258ZM36.6371 20.2203C36.6371 20.6724 36.185 21.1245 35.7329 21.5765L31.9656 25.3439L30.6093 23.9877L34.5274 20.0696L33.6232 19.1654L32.5683 20.2203L29.1023 16.7543L32.4176 13.5897C32.719 13.2883 33.3218 13.2883 33.7739 13.5897L35.8836 15.6994C36.185 16.0008 36.185 16.6036 35.8836 17.0557C35.5823 17.3571 35.2809 17.6584 35.2809 17.9598C35.2809 18.2612 35.5823 18.5626 35.8836 18.864C36.3357 19.3161 36.7878 19.7682 36.6371 20.2203ZM6.34726 32.1252V8.01392H16.896V15.5487H24.4308V17.8091L27.4447 14.7952V14.0417L18.4029 5H6.34726C4.68961 5 3.33334 6.35626 3.33334 8.01392V32.1252C3.33334 33.7829 4.68961 35.1392 6.34726 35.1392H24.4308C26.0884 35.1392 27.4447 33.7829 27.4447 32.1252H6.34726ZM18.4029 27.7551C18.1015 27.7551 17.8001 27.9058 17.6494 27.9058L16.896 24.5905H14.6355L11.4709 27.1523L12.3751 23.0835H10.1147L8.6077 30.6183H10.8681L15.2383 26.7002L16.1425 30.1662H17.6494L18.4029 30.0155V27.7551V27.7551Z" fill="black"/>
</mask>
<g mask="url(#mask0_201_334)">
<rect width="40" height="40" fill="white"/>
</g>
</svg>
