<svg width="40" height="40" viewBox="0 0 40 40" fill="none" xmlns="http://www.w3.org/2000/svg">
<mask id="mask0_201_191" style="mask-type:alpha" maskUnits="userSpaceOnUse" x="6" y="3" width="27" height="34">
<path d="M30.0291 25.0585C29.9643 25.0585 29.7049 24.9937 29.5752 24.9288L29.64 24.6694H29.7697C29.8994 24.6694 29.8994 24.6694 29.9643 24.5397C30.0291 24.41 30.1588 23.7615 30.1588 23.6318C30.1588 23.4373 30.1588 19.6759 30.1588 19.6759C30.1588 19.6759 29.9643 19.7408 29.7697 19.8056C29.7697 19.3517 29.7697 18.8328 29.7697 18.314V17.5358C29.7049 14.8121 29.64 12.0235 29.5752 10.921L29.64 10.4671C29.64 10.4671 29.64 10.3374 29.7049 10.3374C29.7697 10.2725 29.8346 10.1428 29.8346 10.078H30.8722L31.0019 10.1428C31.1965 10.1428 32.2341 10.1428 32.2989 10.078C32.3638 10.0131 32.4286 9.81858 32.2341 9.62403C32.1044 9.49433 31.5856 9.42948 31.4559 9.42948C31.0668 9.36463 30.7425 9.55918 30.7425 9.55918H29.8346C29.8346 9.23492 29.7697 8.91067 29.64 8.58642C29.64 8.58642 29.64 8.58642 29.5752 8.58642C28.2133 8.52156 24.6465 8.26216 19.7827 8.26216C14.7243 8.26216 10.7036 8.45671 9.34172 8.58642C9.27687 8.78097 9.21202 9.10522 9.21202 9.29977C9.21202 9.29977 8.49866 9.29977 8.30411 9.29977C8.23926 9.29977 7.97986 9.17007 7.97986 9.17007C7.915 9.17007 7.46105 9.17007 7.33135 9.17007C7.2665 9.17007 7.00709 9.23492 7.00709 9.23492C6.87739 9.29977 6.68284 9.36463 6.68284 9.42948C6.68284 9.49433 6.61799 9.75373 6.74769 9.75373C7.07194 9.81858 7.7853 9.88343 8.04471 9.88343C8.10956 9.88343 8.17441 9.81858 8.17441 9.81858H9.21202C9.21202 9.88343 9.21202 9.88343 9.21202 9.94828C9.21202 10.0131 9.21202 10.1428 9.21202 10.2077C9.21202 10.3374 9.27687 10.4022 9.27687 10.4671L9.01747 10.5968L8.49866 10.7913C8.49866 10.7913 8.43381 10.7265 8.36896 10.7913C8.36896 10.7913 7.7853 11.2453 7.72045 11.3102C7.59075 11.4399 7.5259 11.6993 7.5259 11.6993C7.5259 11.6993 7.5259 11.8938 7.59075 11.9587C7.85015 12.2181 8.23926 12.0235 8.43381 11.9587C8.69321 11.829 8.95262 11.5696 8.95262 11.5696C8.95262 11.5696 9.08232 11.4399 9.21202 11.375L8.69321 10.9859L8.95262 10.921H9.21202L9.34172 10.9859C9.34172 12.0235 9.21202 14.8769 9.14717 17.6655C9.14717 17.6655 9.08232 18.3789 9.14717 18.4437C9.14717 18.9626 9.14717 19.4165 9.14717 19.8705C8.95262 19.8056 8.82292 19.7408 8.82292 19.7408C8.82292 19.7408 8.82292 23.5021 8.82292 23.6967C8.82292 23.8912 8.95262 24.4749 9.01747 24.6046C9.08232 24.7343 9.08232 24.7343 9.21202 24.7343H9.40657L9.53628 24.9937C9.47142 25.0585 9.34172 25.1234 9.27687 25.1234C9.08232 25.1882 8.62836 25.8367 8.62836 26.2907C8.62836 26.5501 8.62836 28.6902 8.62836 30.8303C8.62836 32.6461 8.62836 34.3971 8.62836 34.5268C8.62836 34.7862 8.69321 35.1104 8.75807 35.305V36.2129C8.75807 36.4723 8.95262 36.6668 9.27687 36.6668H11.2872C11.5467 36.6668 11.7412 36.4723 11.7412 36.2129V35.4347H27.2406V36.2777C27.2406 36.5371 27.4351 36.6668 27.7594 36.6668H29.7697C30.0291 36.6668 30.2885 36.4723 30.2885 36.2777V35.3698C30.3534 35.1753 30.4182 34.6565 30.4182 34.3322C30.4182 34.2025 30.4831 32.5164 30.4831 30.7006C30.5479 28.6902 30.5479 26.5501 30.5479 26.2907C30.5479 25.8367 30.2237 25.0585 30.0291 25.0585ZM28.9267 19.8705C29.1861 19.7408 29.5103 19.6111 29.5103 19.6111C29.5103 19.6111 29.5103 19.6759 29.5103 19.8056H29.4455C28.8618 20.0002 28.797 20.3893 28.7321 20.5838C28.6673 20.7784 28.1485 23.5021 28.1485 23.6967C28.1485 23.8912 28.0836 24.0209 28.0188 24.0858C27.9539 24.1506 27.8242 24.2803 27.6945 24.41H27.3054C27.3054 24.41 27.3054 24.3452 27.3703 24.2803C27.4351 24.2155 27.6945 23.8912 27.7594 23.8264C27.8242 23.7615 27.8891 23.6318 27.8891 23.4373C27.8891 23.3076 28.343 20.7135 28.343 20.519C28.4079 20.3893 28.4727 20.0002 28.9267 19.8705ZM10.5739 10.4022C11.0927 10.4022 16.5402 10.3374 19.4585 10.3374C22.3767 10.3374 27.8242 10.3374 28.343 10.4022C28.4727 11.375 28.6024 17.471 28.5376 18.1195C28.1485 18.1195 27.5648 18.1195 26.7217 18.1195C25.3599 18.1195 23.6738 18.1195 22.1822 18.0546C21.0797 18.0546 20.0421 18.0546 19.4585 18.0546C18.8748 18.0546 17.8372 18.0546 16.7347 18.0546C14.4001 18.0546 11.4818 18.1195 10.3793 18.0546C10.3793 17.471 10.4442 11.375 10.5739 10.4022ZM21.2743 24.0858C21.2743 24.1506 21.2743 24.2803 21.2743 24.3452L26.3975 24.0858C26.3975 24.0858 26.3975 24.0858 26.4623 24.0858C26.4623 24.0858 26.4623 24.0858 26.4623 24.1506C26.3326 24.7343 25.8787 24.9288 25.4247 24.9288C25.1005 24.9288 22.247 25.0585 21.0149 25.1234C20.6258 25.5773 20.107 25.9016 19.5233 25.9016C18.9396 25.9016 18.4208 25.5773 18.0966 25.1234C16.7996 25.0585 13.8813 24.9937 13.6219 24.9288C13.2328 24.9288 12.714 24.6694 12.5843 24.1506C12.5843 24.1506 12.5843 24.1506 12.5843 24.0858C12.5843 24.0858 12.5843 24.0858 12.6491 24.0858L17.8372 24.3452C17.8372 24.2803 17.8372 24.2155 17.8372 24.0858C17.8372 23.8264 17.902 23.6318 17.9669 23.4373C16.4753 23.4373 13.6219 23.3724 13.3625 23.3076H13.2976C12.9734 23.3076 12.714 23.2427 12.3897 22.659C12.3897 22.659 12.3897 22.6591 12.3897 22.5942C12.3897 22.5942 12.3897 22.5942 12.4546 22.5942H18.6154C18.8748 22.3996 19.1991 22.3348 19.5882 22.3348C19.9124 22.3348 20.3015 22.4645 20.5609 22.5942H26.6569C26.6569 22.5942 26.6569 22.5942 26.7217 22.5942C26.7217 22.5942 26.7217 22.5942 26.7217 22.659C26.4623 23.2427 26.1381 23.3076 25.8138 23.3076H25.749C25.4896 23.3076 22.6361 23.3724 21.1446 23.4373C21.2094 23.6967 21.2743 23.8912 21.2743 24.0858ZM26.1381 25.707C26.0084 26.0313 25.8138 26.4204 25.3599 26.4853C25.2302 26.4853 24.6465 26.5501 23.8683 26.615C22.3119 26.7447 19.9773 27.0041 19.4585 27.0041C18.9396 27.0041 16.605 26.8095 15.0486 26.615C14.2704 26.5501 13.6867 26.4853 13.557 26.4853C13.1031 26.4853 12.9085 26.0313 12.7788 25.7719V25.707C12.7788 25.707 12.7788 25.707 12.7788 25.6422C12.7788 25.6422 12.7788 25.6422 12.8437 25.6422C13.3625 25.707 17.8372 25.9664 18.4208 26.0313C18.7451 26.2258 19.2639 26.3555 19.5233 26.3555C19.7827 26.3555 20.4312 26.2258 20.7555 26.0313C21.2094 26.0313 25.6193 25.707 26.1381 25.707C26.1381 25.6422 26.1381 25.6422 26.1381 25.707ZM9.47142 19.8705C9.47142 19.7408 9.47142 19.6759 9.47142 19.6759C9.47142 19.6759 9.79568 19.8056 10.0551 19.9353C10.509 20.065 10.5739 20.4541 10.6387 20.6487C10.6387 20.7784 11.0927 23.3724 11.0927 23.5021C11.0927 23.6318 11.1575 23.8264 11.2224 23.8912C11.2872 23.9561 11.5467 24.2803 11.6115 24.3452C11.6764 24.41 11.6764 24.4749 11.6764 24.4749H11.2872C11.1575 24.3452 10.963 24.1506 10.963 24.1506C10.8981 24.0858 10.8333 23.9561 10.8333 23.7615C10.8333 23.567 10.3145 20.8432 10.2496 20.6487C10.1848 20.4541 10.1199 20.065 9.47142 19.8705ZM9.34172 27.7823C9.34172 27.7174 9.34172 27.7174 9.34172 27.7823C9.40657 27.7174 9.40657 27.7174 9.34172 27.7823C9.40657 27.7174 11.3521 28.1065 11.5467 28.1714H11.6115C11.7412 28.2362 11.8061 28.2362 11.8709 28.4308C11.8709 28.4956 11.9358 28.5605 11.9358 28.6902C12.0006 28.9496 12.0655 29.2738 12.26 29.4684C12.4546 29.5981 12.7788 29.7926 13.1031 29.8575C13.1031 29.8575 13.1031 29.8575 13.1031 29.9223L12.7788 30.96C12.7788 30.96 12.7788 30.96 12.714 30.96C12.0655 30.8303 11.1575 30.7006 10.7684 30.5709C10.1848 30.3763 9.60113 30.1169 9.47142 29.1441C9.34172 28.1714 9.34172 27.7823 9.34172 27.7823ZM12.9085 33.4891H9.66598C9.66598 33.3594 9.73083 33.1649 9.79568 32.8406C9.92538 32.1921 10.3793 32.0624 10.7036 32.0624C11.0278 32.0624 13.1679 32.3867 13.1679 32.3867L12.9085 33.4891ZM25.4896 33.6188H25.0356C24.9708 33.4243 24.7114 32.7758 24.5168 32.3218C24.2574 31.803 23.6738 31.6085 23.2847 31.5436C22.8955 31.5436 21.2743 31.5436 19.4585 31.5436C17.5778 31.5436 16.0214 31.4788 15.6323 31.5436C15.2431 31.5436 14.6595 31.803 14.4001 32.3218C14.2055 32.7758 14.011 33.4243 13.9461 33.6188H13.3625C13.3625 33.554 13.4273 33.4891 13.4922 33.2946C13.6219 32.9055 13.8813 32.1921 14.0758 31.8679C14.3352 31.4139 14.9837 31.2194 15.308 31.1545C15.5026 31.1545 16.0214 31.1545 16.6699 31.1545C17.3832 31.1545 18.4208 31.1545 19.4585 31.1545C20.4961 31.1545 21.5337 31.1545 22.247 31.1545C22.8955 31.1545 23.4144 31.1545 23.6089 31.1545C23.9332 31.1545 24.5817 31.3491 24.8411 31.8679C25.0356 32.1921 25.295 32.9055 25.4247 33.2946C25.4896 33.4243 25.4896 33.554 25.5544 33.6188C25.5544 33.6188 25.4896 33.6188 25.4896 33.6188ZM13.6867 28.5605C13.7516 28.4956 13.7516 28.4956 13.6867 28.5605C15.1783 28.6902 18.8099 29.1441 19.3936 29.1441C19.9773 29.1441 23.6089 28.6902 25.0356 28.4956C25.0356 28.4956 25.0356 28.4956 25.1005 28.4956C25.1005 28.4956 25.1005 28.4956 25.1005 28.5605C25.0356 28.8199 24.8411 29.3387 24.1926 29.4035C23.8683 29.4035 23.2198 29.5332 22.5064 29.5981C21.2094 29.7926 19.7179 29.9223 19.4585 29.9223C19.1342 29.9223 17.5778 29.7278 16.2808 29.5332C15.5674 29.4684 14.9189 29.3387 14.6595 29.3387C13.9461 29.3387 13.7516 28.755 13.6867 28.5605ZM24.6465 28.0417C21.5985 28.3659 19.7827 28.4956 19.4585 28.4956C18.9396 28.4956 14.3352 28.0417 14.3352 28.0417C13.557 27.9768 13.4273 27.3283 13.3625 27.1338C13.3625 27.1338 13.3625 27.1338 13.3625 27.0689C13.3625 27.0689 13.3625 27.0689 13.4273 27.0689C14.9189 27.2635 18.8748 27.7174 19.5233 27.7174C20.1718 27.7174 24.1277 27.2635 25.6193 27.0689C25.6193 27.0689 25.6193 27.0689 25.6841 27.0689C25.6841 27.0689 25.6841 27.0689 25.6841 27.1338C25.5544 27.458 25.295 27.912 24.6465 28.0417ZM26.1381 33.4891L25.8138 32.3867C25.8138 32.3867 27.8891 32.1273 28.2782 32.0624C28.6024 31.9976 29.1212 32.1273 29.1861 32.8406C29.2509 33.1649 29.2509 33.3594 29.3158 33.4891H26.1381ZM29.4455 29.0793C29.3158 30.052 28.7321 30.3115 28.1485 30.506C27.7594 30.6357 26.8514 30.7654 26.2029 30.8951C26.2029 30.8951 26.2029 30.8951 26.1381 30.8951L25.8787 29.8575V29.7926C26.2029 29.6629 26.592 29.5332 26.7217 29.3387C26.9163 29.209 26.9812 28.8199 27.046 28.5605C27.046 28.4956 27.046 28.4308 27.1109 28.3659C27.1757 28.1714 27.3054 28.1065 27.3703 28.1065H27.4351C27.5648 28.1065 29.5752 27.7174 29.5752 27.7174C29.5752 27.7823 29.5752 28.1714 29.4455 29.0793Z" fill="white"/>
<path d="M29.4455 8.26216C29.3806 8.13246 29.3158 7.87306 29.1861 7.61365C29.0564 6.83544 28.7321 5.66813 28.6673 5.47357C28.6024 5.40872 28.5376 5.34387 28.4079 5.34387C28.2782 5.01962 28.2133 4.82507 28.1485 4.76021C28.1485 4.69536 28.1485 4.56566 28.1485 4.50081C28.2782 4.56566 28.4079 4.63051 28.5376 4.63051C28.8618 4.63051 29.1861 4.37111 29.1861 3.982C29.1861 3.65775 28.9267 3.3335 28.5376 3.3335C28.2133 3.3335 27.8891 3.5929 27.8891 3.982C27.8891 4.11171 27.9539 4.24141 28.0188 4.30626C27.8891 4.24141 27.7594 4.24141 27.6297 4.30626C27.3703 4.24141 27.1757 4.24141 27.1757 4.24141H11.8061C11.8061 4.24141 11.5467 4.24141 11.2872 4.30626C11.1575 4.24141 11.0278 4.24141 10.8981 4.30626C10.963 4.17656 11.0278 4.11171 11.0278 3.982C11.0278 3.65775 10.7684 3.3335 10.3793 3.3335C10.0551 3.3335 9.73083 3.5929 9.73083 3.982C9.73083 4.30626 9.99023 4.63051 10.3793 4.63051C10.509 4.63051 10.6387 4.56566 10.7684 4.50081C10.7036 4.56566 10.7684 4.69536 10.7684 4.76021C10.7036 4.88992 10.6387 5.08447 10.5739 5.40872C10.4442 5.40872 10.3145 5.47357 10.1848 5.60328C10.0551 5.79783 9.60113 7.87306 9.53628 8.32701C11.0927 8.26216 14.9189 8.00276 19.8476 8.00276C24.5168 8.00276 27.9539 8.13246 29.4455 8.26216Z" fill="white"/>
<path d="M20.95 24.0858C20.95 23.3076 20.3015 22.5942 19.4585 22.5942C18.6802 22.5942 17.9669 23.2427 17.9669 24.0858C17.9669 24.864 18.6154 25.5773 19.4585 25.5773C20.3015 25.5773 20.95 24.9288 20.95 24.0858ZM19.4585 22.8536L19.3288 23.9561C19.3288 23.9561 18.5505 24.5397 18.4208 24.6694C18.1614 24.2155 18.2911 23.7615 18.356 23.567C18.4208 23.4373 18.7451 22.8536 19.4585 22.8536ZM20.6258 24.7991C20.3664 25.1882 19.9124 25.3828 19.653 25.3828C19.4585 25.3828 18.8748 25.3828 18.4208 24.7991L19.5233 24.3452C19.5233 24.3452 20.3664 24.7343 20.6258 24.7991ZM20.6906 23.567C20.8203 23.8264 20.8852 24.2803 20.6258 24.6694C20.4961 24.6046 19.7179 23.9561 19.7179 23.9561L19.5233 22.7888C20.3015 22.8536 20.6258 23.4373 20.6906 23.567Z" fill="white"/>
</mask>
<g mask="url(#mask0_201_191)">
<rect width="40" height="40" fill="white"/>
</g>
</svg>
