<svg width="24" height="24" viewBox="0 0 24 24" fill="none" xmlns="http://www.w3.org/2000/svg">
<mask id="mask0_154_582" style="mask-type:alpha" maskUnits="userSpaceOnUse" x="1" y="1" width="22" height="22">
<path d="M15.3766 1H8.62345C2.46089 1 1 2.46089 1 8.62345V15.3766C1 21.5391 2.46089 23 8.62345 23H15.3766C21.5391 23 23 21.5391 23 15.3766V8.62345C23 2.46089 21.5247 1 15.3766 1ZM18.7603 16.6938H17.1633C16.5583 16.6938 16.372 16.2139 15.2837 15.1112C14.3385 14.1948 13.9198 14.0731 13.6867 14.0731C13.3574 14.0731 13.2639 14.1659 13.2639 14.6176V16.0606C13.2639 16.4476 13.1422 16.68 12.1179 16.68C10.424 16.68 8.54439 15.6557 7.22649 13.7472C5.23899 10.9506 4.6952 8.85582 4.6952 8.42271C4.6952 8.18965 4.78801 7.97172 5.23556 7.97172H6.83601C7.24093 7.97172 7.39493 8.15803 7.55236 8.59114C8.34365 10.8756 9.66154 12.8769 10.2053 12.8769C10.4061 12.8769 10.4989 12.7841 10.4989 12.2719V9.91247C10.4377 8.82419 9.86504 8.7307 9.86504 8.34433C9.86504 8.15803 10.019 7.97172 10.2658 7.97172H12.7827C13.123 7.97172 13.2481 8.15803 13.2481 8.55883V11.7419C13.2481 12.0856 13.4021 12.2073 13.4949 12.2073C13.6957 12.2073 13.8675 12.0856 14.2395 11.713C15.3889 10.424 16.2125 8.43646 16.2125 8.43646C16.3198 8.2034 16.5061 7.98547 16.911 7.98547H18.5115C18.9913 7.98547 19.0986 8.23227 18.9913 8.57601C18.7906 9.50686 16.8319 12.2712 16.8319 12.2712C16.6635 12.5503 16.5989 12.672 16.8319 12.9834C17.0038 13.2165 17.5627 13.6998 17.9347 14.1329C18.6187 14.9098 19.1446 15.5615 19.2849 16.0125C19.4423 16.46 19.2099 16.6931 18.7583 16.6931L18.7603 16.6938Z" fill="black"/>
</mask>
<g mask="url(#mask0_154_582)">
<rect width="24" height="24" fill="#999999"/>
</g>
</svg>
