<svg width="219" height="51" viewBox="0 0 219 51" fill="none" xmlns="http://www.w3.org/2000/svg">
<path d="M58.9412 45.9576C33.4058 45.9576 12.7052 38.4832 12.7052 29.263C12.7052 26.3134 14.8245 23.5426 18.5421 21.1379C18.5046 19.9612 18.7841 18.0094 19.7918 16.8879C7.82686 19.9052 0 24.9144 0 30.5837C0 39.8039 20.7004 47.2784 46.2358 47.2784C53.0221 47.2784 59.467 46.7504 65.2725 45.8022C63.2025 45.9045 61.089 45.9576 58.9412 45.9576ZM32.5062 32.0768L33.3819 28.1763C32.5037 27.6714 31.6848 27.0539 30.9466 26.3303C28.3555 23.7905 27.0912 20.2769 27.4797 16.6894C28.0726 11.2048 32.5645 6.80194 38.16 6.22202C38.5944 6.17689 39.0278 6.15489 39.4589 6.15489C42.6564 6.15489 45.7112 7.38299 47.9947 9.62018C49.7875 11.3773 50.9439 13.6009 51.3584 15.992C52.1251 16.2517 52.823 16.5806 53.4545 16.9833C54.0581 17.3682 54.7082 17.8991 55.2697 18.6177C55.2257 18.4088 55.2013 18.1938 55.2013 17.9746C55.2013 16.7048 55.9703 15.5581 57.1604 15.0553C57.6342 14.8549 57.8947 14.3576 57.7825 13.8722C57.6791 13.4309 57.5579 12.9875 57.4209 12.5517C57.2716 12.0763 56.7956 11.7748 56.2859 11.832C54.997 11.9828 53.743 11.3676 53.094 10.265C52.4462 9.16568 52.5282 7.79779 53.3006 6.7788C53.6048 6.37715 53.5757 5.82142 53.2298 5.45605C52.9144 5.12267 52.582 4.79691 52.2419 4.48772C51.8703 4.14872 51.3034 4.12015 50.8936 4.41839C49.8539 5.17552 48.4573 5.25474 47.3368 4.62084C46.2119 3.98484 45.5844 2.75674 45.7381 1.49236C45.7988 0.994907 45.49 0.526115 45.0051 0.379756C44.5616 0.24549 44.1091 0.126656 43.6578 0.0254331C43.1615 -0.0846456 42.6552 0.170647 42.4509 0.635054C41.9378 1.80259 40.768 2.55648 39.4724 2.55648C38.1768 2.55648 37.0069 1.80269 36.4939 0.635054C36.2896 0.17179 35.7821 -0.0846456 35.287 0.0254331C34.8368 0.126656 34.3832 0.24549 33.9397 0.379756C33.4547 0.527258 33.146 0.994905 33.2066 1.4934C33.3604 2.75778 32.7328 3.98589 31.6079 4.62198C30.4863 5.25693 29.0897 5.17656 28.0501 4.41944C27.6403 4.12129 27.0733 4.14986 26.7017 4.48772C26.3638 4.79586 26.0314 5.12153 25.7138 5.45605C25.3691 5.82037 25.3388 6.3761 25.6441 6.77775C26.4165 7.79674 26.4974 9.16568 25.8507 10.265C25.2018 11.3676 23.9489 11.9828 22.6578 11.832C22.1515 11.7737 21.672 12.0752 21.5227 12.5517C21.3857 12.9863 21.2645 13.4309 21.1612 13.8722C21.0479 14.3576 21.3094 14.8549 21.7832 15.0553C22.9733 15.5581 23.7435 16.7047 23.7435 17.9746C23.7435 19.2457 22.9744 20.3912 21.7832 20.8941C21.3094 21.0945 21.0489 21.5918 21.1612 22.0772C21.2645 22.5184 21.3857 22.963 21.5227 23.3976C21.672 23.8741 22.1481 24.1746 22.6589 24.1173C23.9478 23.9655 25.2018 24.5817 25.8518 25.6843C26.4996 26.7837 26.4177 28.1526 25.6453 29.1716C25.341 29.5733 25.3702 30.129 25.7148 30.4944C26.0304 30.8279 26.3626 31.1525 26.7028 31.4628C27.0744 31.8017 27.6414 31.8304 28.0523 31.531C29.0919 30.7739 30.4886 30.6936 31.6102 31.3285C31.9598 31.5262 32.2612 31.7813 32.5062 32.0768ZM46.6149 10.9726C47.9079 12.2399 48.8064 13.7963 49.2536 15.4831C48.7315 15.4006 48.1834 15.3423 47.6085 15.3074C46.5337 12.1915 43.6197 9.85719 40.1707 9.58828C39.9405 9.57067 39.7104 9.56181 39.4813 9.56181C37.2068 9.56181 35.0231 10.44 33.4031 12.0279C31.6203 13.7755 30.7131 16.1931 30.9141 18.6614C31.1079 21.0488 32.3531 23.1747 34.1872 24.5895L33.8272 26.1927C33.2939 25.8397 32.7909 25.4346 32.3264 24.979C30.1551 22.8508 29.0952 19.906 29.4209 16.9007C29.9182 12.303 33.6837 8.61214 38.3744 8.12469C41.4404 7.80446 44.4436 8.8443 46.6149 10.9726ZM210.41 48.7482H210.59C210.639 49.0173 210.688 49.1602 210.77 49.3369C210.934 49.6648 211.269 49.8751 211.654 49.8751C212.128 49.8751 212.497 49.5471 212.497 49.1183C212.497 48.8575 212.382 48.6977 212.063 48.5211C212.038 48.5043 211.768 48.3782 211.253 48.1342C210.655 47.8567 210.467 47.6129 210.467 47.125C210.467 46.469 210.966 46.0065 211.695 46.0065C212.006 46.0065 212.243 46.0822 212.529 46.2756L212.668 45.9308H212.808V47.2343H212.628C212.554 46.5616 212.276 46.242 211.768 46.242C211.335 46.242 210.999 46.5447 210.999 46.9316C210.999 47.1924 211.114 47.3521 211.441 47.5203C211.556 47.5792 211.613 47.6044 212.21 47.8736C212.824 48.1511 213.045 48.4285 213.045 48.9164C213.045 49.6228 212.497 50.1274 211.736 50.1274C211.367 50.1274 211.057 50.0181 210.746 49.7826L210.549 50.1527H210.41V48.7482ZM208.111 46.6625C208.192 46.57 208.241 46.4859 208.241 46.427C208.241 46.3009 208.111 46.242 207.8 46.2252V46.057C208.127 46.0906 208.315 46.0991 208.569 46.0991C208.822 46.0991 209.019 46.0906 209.379 46.057V46.2252C208.962 46.2589 208.839 46.3261 208.561 46.6204L207.775 47.4698L208.929 49.4546C209.142 49.8162 209.264 49.892 209.665 49.9087V50.077C209.395 50.0517 209.264 50.0433 209.109 50.0433C208.953 50.0433 208.822 50.0517 208.569 50.077L207.358 47.8736L206.785 48.479V49.4546C206.785 49.8162 206.875 49.8836 207.374 49.9087V50.077C206.94 50.0349 206.736 50.0265 206.466 50.0265C206.196 50.0265 205.983 50.0349 205.558 50.077V49.9087C206.065 49.8836 206.147 49.8162 206.147 49.4546V45.216C206.147 44.7787 206.081 44.7198 205.566 44.7198V44.5685C206.008 44.5264 206.392 44.4591 206.793 44.3497V48.1006L208.111 46.6625ZM204.936 47.2933H204.756C204.69 46.999 204.649 46.8643 204.559 46.6961C204.404 46.3934 204.117 46.2084 203.806 46.2084C203.184 46.2084 202.833 46.898 202.833 48.0922C202.833 49.2696 203.152 49.8667 203.782 49.8667C204.289 49.8667 204.592 49.4967 204.69 48.7566H205.017C204.919 49.6565 204.453 50.1442 203.716 50.1442C202.759 50.1442 202.121 49.32 202.121 48.1006C202.121 46.8392 202.784 45.9813 203.741 45.9813C204.085 45.9813 204.314 46.0822 204.576 46.3345L204.788 45.9056H204.936V47.2933ZM197.35 46.1579C197.767 46.1242 198.193 46.0486 198.586 45.9392V48.7397C198.586 49.4546 198.798 49.7405 199.322 49.7405C199.895 49.7405 200.165 49.3789 200.165 48.622V46.7971C200.165 46.3597 200.108 46.3092 199.592 46.3009V46.1579C200.001 46.1242 200.435 46.0401 200.82 45.9392V49.3537C200.82 49.7322 200.861 49.7574 201.425 49.7658V49.9172C200.975 49.9592 200.607 50.0349 200.296 50.1358C200.279 49.9844 200.255 49.7238 200.247 49.3705C199.977 49.9003 199.658 50.119 199.134 50.119C198.708 50.119 198.357 49.9508 198.144 49.6481C197.997 49.4378 197.931 49.1519 197.931 48.7314V46.7971C197.931 46.3597 197.874 46.3092 197.35 46.3009V46.1579ZM193.97 46.1495C194.404 46.1075 194.756 46.0401 195.051 45.9477C195.1 46.2756 195.116 46.4102 195.124 46.7466C195.313 46.2589 195.656 45.9813 196.073 45.9813C196.491 45.9813 196.785 46.2673 196.785 46.6625C196.785 46.9064 196.654 47.0662 196.45 47.0662C196.254 47.0662 196.114 46.9485 196.114 46.7887C196.114 46.7466 196.114 46.7466 196.139 46.6121C196.147 46.5868 196.147 46.5616 196.147 46.5364C196.147 46.4187 196.041 46.3345 195.902 46.3345C195.476 46.3345 195.206 46.8643 195.206 47.6969V49.4546C195.206 49.8162 195.288 49.8836 195.787 49.9087V50.077C195.362 50.0349 195.157 50.0265 194.879 50.0265C194.601 50.0265 194.388 50.0349 193.962 50.077V49.9087C194.462 49.8836 194.551 49.8162 194.551 49.4546V46.8392C194.551 46.3177 194.543 46.3009 193.97 46.2925V46.1495ZM191.696 49.3117C191.696 49.7658 191.761 49.8246 192.367 49.8751V50.077C191.892 50.0265 191.655 50.0096 191.352 50.0096C191.041 50.0096 190.804 50.0265 190.321 50.077V49.8751C190.935 49.8246 191 49.7658 191 49.3117V44.703H190.558C189.977 44.703 189.789 44.8964 189.544 45.729H189.347L189.568 44.4423H193.144L193.373 45.729H193.177C192.956 44.8964 192.768 44.703 192.211 44.703H191.696V49.3117ZM185.665 46.3009H184.756C184.225 46.3009 184.094 46.4187 183.807 47.1755H183.635L183.824 46.0822H186.54L184.315 49.833H185.272C185.689 49.833 185.837 49.7574 186.033 49.4462C186.148 49.2696 186.221 49.1014 186.303 48.8407H186.475L186.262 50.0517H183.447L185.665 46.3009ZM178.775 46.1832C179.233 46.1159 179.585 46.0401 179.855 45.9308C179.896 46.0738 179.929 46.3513 179.945 46.6625C180.24 46.2084 180.575 46.0065 181.05 46.0065C181.467 46.0065 181.835 46.1915 182.048 46.528C182.179 46.7298 182.244 47.0241 182.244 47.4362V49.4546C182.244 49.8162 182.326 49.8836 182.833 49.9087V50.077C182.424 50.0349 182.22 50.0265 181.933 50.0265C181.663 50.0265 181.451 50.0349 181.05 50.077V49.9087C181.483 49.892 181.59 49.8079 181.59 49.4714V47.411C181.59 47.0409 181.557 46.8559 181.467 46.6961C181.344 46.4943 181.131 46.385 180.861 46.385C180.583 46.385 180.338 46.5111 180.174 46.7298C180.051 46.898 180.01 47.0746 180.01 47.4446V49.4714C180.01 49.8079 180.117 49.892 180.542 49.9087V50.077C180.141 50.0349 179.929 50.0265 179.659 50.0265C179.38 50.0265 179.176 50.0349 178.767 50.077V49.9087C179.274 49.8836 179.356 49.8162 179.356 49.4546V46.8559C179.356 46.3766 179.323 46.343 178.881 46.3345H178.775V46.1832ZM177.376 47.6717C177.335 46.6878 177.056 46.2168 176.533 46.2168C176.001 46.2168 175.698 46.7045 175.616 47.6717H177.376ZM178.038 48.7566C177.94 49.6228 177.4 50.1358 176.582 50.1358C175.575 50.1358 174.937 49.3369 174.937 48.0585C174.937 46.8307 175.583 45.9982 176.541 45.9982C177.466 45.9982 178.006 46.713 178.03 47.9744H175.6C175.616 48.58 175.649 48.8743 175.747 49.1435C175.911 49.6228 176.222 49.8583 176.68 49.8583C177.253 49.8583 177.621 49.4714 177.719 48.7566H178.038ZM171.386 49.3621C171.386 49.7322 171.459 49.791 171.885 49.791H172.188C172.916 49.791 173.325 49.32 173.325 48.479C173.325 48.0837 173.219 47.7306 173.03 47.5288C172.85 47.3353 172.588 47.2512 172.163 47.2512H171.386V49.3621ZM171.942 46.9905C172.392 46.9905 172.613 46.9148 172.793 46.713C172.973 46.5111 173.063 46.2168 173.063 45.8299C173.063 45.0478 172.768 44.703 172.081 44.703H171.386V46.9905H171.942ZM172.179 44.4423C172.711 44.4423 173.03 44.5264 173.309 44.745C173.611 44.9973 173.791 45.3842 173.791 45.8131C173.791 46.4018 173.489 46.8223 172.899 47.0578C173.145 47.1083 173.292 47.1671 173.456 47.2681C173.832 47.5119 174.053 47.9492 174.053 48.4454C174.053 48.9752 173.791 49.4883 173.374 49.7574C173.047 49.976 172.703 50.0517 172.089 50.0517H170.027V49.8499C170.625 49.7994 170.698 49.7405 170.698 49.2948V45.2076C170.698 44.7619 170.616 44.6862 170.027 44.6525V44.4423H172.179ZM167.499 47.6129H169.602V47.9913H167.499V47.6129ZM164.283 48.7482H164.463C164.512 49.0173 164.561 49.1602 164.643 49.3369C164.807 49.6648 165.142 49.8751 165.527 49.8751C166.001 49.8751 166.37 49.5471 166.37 49.1183C166.37 48.8575 166.255 48.6977 165.936 48.5211C165.911 48.5043 165.641 48.3782 165.126 48.1342C164.528 47.8567 164.34 47.6129 164.34 47.125C164.34 46.469 164.839 46.0065 165.568 46.0065C165.879 46.0065 166.116 46.0822 166.402 46.2756L166.541 45.9308H166.68V47.2343H166.5C166.427 46.5616 166.149 46.242 165.641 46.242C165.208 46.242 164.872 46.5447 164.872 46.9316C164.872 47.1924 164.987 47.3521 165.314 47.5203C165.429 47.5792 165.486 47.6044 166.083 47.8736C166.697 48.1511 166.918 48.4285 166.918 48.9164C166.918 49.6228 166.37 50.1274 165.609 50.1274C165.24 50.1274 164.929 50.0181 164.618 49.7826L164.422 50.1527H164.283V48.7482ZM162.704 47.6717C162.663 46.6878 162.384 46.2168 161.861 46.2168C161.329 46.2168 161.026 46.7045 160.944 47.6717H162.704ZM163.366 48.7566C163.268 49.6228 162.728 50.1358 161.91 50.1358C160.903 50.1358 160.265 49.3369 160.265 48.0585C160.265 46.8307 160.912 45.9982 161.869 45.9982C162.794 45.9982 163.334 46.713 163.358 47.9744H160.928C160.944 48.58 160.977 48.8743 161.075 49.1435C161.239 49.6228 161.55 49.8583 162.008 49.8583C162.581 49.8583 162.949 49.4714 163.047 48.7566H163.366ZM156.599 48.0837C156.599 49.278 156.91 49.9172 157.507 49.9172C158.088 49.9172 158.391 49.3117 158.391 48.1594C158.391 46.9064 158.08 46.2673 157.483 46.2673C156.894 46.2673 156.599 46.8728 156.599 48.0837ZM159.635 49.9172C159.054 49.9929 158.898 50.0265 158.555 50.1358C158.481 49.8246 158.473 49.7742 158.448 49.4631C158.211 49.9424 157.892 50.1527 157.434 50.1527C156.542 50.1527 155.912 49.3033 155.912 48.0922C155.912 46.8812 156.534 46.0318 157.409 46.0318C157.851 46.0318 158.08 46.1832 158.383 46.6878V45.216C158.383 44.7787 158.317 44.7198 157.81 44.7198V44.5685C158.211 44.5347 158.686 44.4507 159.038 44.3497V49.2023C159.038 49.7069 159.095 49.7574 159.635 49.7742V49.9172ZM154.439 47.6717C154.398 46.6878 154.12 46.2168 153.596 46.2168C153.064 46.2168 152.761 46.7045 152.679 47.6717H154.439ZM155.102 48.7566C155.003 49.6228 154.463 50.1358 153.645 50.1358C152.639 50.1358 152 49.3369 152 48.0585C152 46.8307 152.647 45.9982 153.604 45.9982C154.529 45.9982 155.069 46.713 155.093 47.9744H152.663C152.679 48.58 152.712 48.8743 152.81 49.1435C152.974 49.6228 153.285 49.8583 153.743 49.8583C154.316 49.8583 154.684 49.4714 154.782 48.7566H155.102ZM151.092 47.2933H150.912C150.847 46.999 150.806 46.8643 150.716 46.6961C150.56 46.3934 150.274 46.2084 149.963 46.2084C149.341 46.2084 148.989 46.898 148.989 48.0922C148.989 49.2696 149.308 49.8667 149.938 49.8667C150.446 49.8667 150.748 49.4967 150.847 48.7566H151.174C151.076 49.6565 150.609 50.1442 149.873 50.1442C148.915 50.1442 148.277 49.32 148.277 48.1006C148.277 46.8392 148.94 45.9813 149.897 45.9813C150.241 45.9813 150.47 46.0822 150.732 46.3345L150.945 45.9056H151.092V47.2933ZM144.914 46.1495C145.348 46.1075 145.7 46.0401 145.994 45.9477C146.043 46.2756 146.06 46.4102 146.068 46.7466C146.256 46.2589 146.6 45.9813 147.017 45.9813C147.434 45.9813 147.729 46.2673 147.729 46.6625C147.729 46.9064 147.598 47.0662 147.393 47.0662C147.197 47.0662 147.058 46.9485 147.058 46.7887C147.058 46.7466 147.058 46.7466 147.082 46.6121C147.091 46.5868 147.091 46.5616 147.091 46.5364C147.091 46.4187 146.984 46.3345 146.845 46.3345C146.42 46.3345 146.15 46.8643 146.15 47.6969V49.4546C146.15 49.8162 146.231 49.8836 146.731 49.9087V50.077C146.305 50.0349 146.101 50.0265 145.822 50.0265C145.544 50.0265 145.331 50.0349 144.906 50.077V49.9087C145.405 49.8836 145.495 49.8162 145.495 49.4546V46.8392C145.495 46.3177 145.487 46.3009 144.914 46.2925V46.1495ZM143.523 47.6717C143.482 46.6878 143.204 46.2168 142.68 46.2168C142.148 46.2168 141.845 46.7045 141.764 47.6717H143.523ZM144.186 48.7566C144.087 49.6228 143.547 50.1358 142.729 50.1358C141.723 50.1358 141.084 49.3369 141.084 48.0585C141.084 46.8307 141.731 45.9982 142.688 45.9982C143.613 45.9982 144.153 46.713 144.177 47.9744H141.747C141.764 48.58 141.796 48.8743 141.895 49.1435C142.058 49.6228 142.369 49.8583 142.827 49.8583C143.4 49.8583 143.768 49.4714 143.866 48.7566H144.186ZM135.094 49.32C135.086 49.7489 135.184 49.833 135.765 49.8751V50.077C135.373 50.0433 135.193 50.0349 134.963 50.0349C134.734 50.0349 134.546 50.0433 134.137 50.077V49.8751C134.71 49.833 134.792 49.7658 134.816 49.32L134.98 45.1824L134.988 45.1319C135.004 44.9216 134.931 44.7702 134.783 44.7114C134.669 44.6609 134.546 44.6357 134.309 44.6273V44.4171C134.62 44.4423 134.759 44.4507 134.98 44.4507C135.266 44.4507 135.446 44.4423 135.757 44.4087L137.279 48.664L138.817 44.4087C139.178 44.4423 139.374 44.4507 139.603 44.4507C139.808 44.4507 139.947 44.4423 140.25 44.4171V44.6189C139.677 44.6609 139.57 44.745 139.579 45.1824L139.66 49.32C139.66 49.7574 139.759 49.8415 140.34 49.8751V50.077C139.849 50.0349 139.611 50.0181 139.317 50.0181C139.014 50.0181 138.785 50.0349 138.294 50.077V49.8751C138.858 49.8415 138.981 49.7489 138.973 49.3621L138.965 49.32L138.899 44.9553L137.541 48.7061C137.492 48.8407 137.492 48.8575 137.336 49.3033C137.271 49.4967 137.206 49.6985 137.132 49.8919H137.009C136.886 49.5135 136.739 49.1098 136.592 48.6725L135.258 44.9385L135.094 49.32ZM128.646 46.1495C129.08 46.1075 129.432 46.0401 129.726 45.9477C129.775 46.2756 129.792 46.4102 129.8 46.7466C129.988 46.2589 130.332 45.9813 130.749 45.9813C131.166 45.9813 131.461 46.2673 131.461 46.6625C131.461 46.9064 131.33 47.0662 131.126 47.0662C130.929 47.0662 130.79 46.9485 130.79 46.7887C130.79 46.7466 130.79 46.7466 130.815 46.6121C130.823 46.5868 130.823 46.5616 130.823 46.5364C130.823 46.4187 130.716 46.3345 130.577 46.3345C130.152 46.3345 129.882 46.8643 129.882 47.6969V49.4546C129.882 49.8162 129.964 49.8836 130.463 49.9087V50.077C130.037 50.0349 129.833 50.0265 129.554 50.0265C129.276 50.0265 129.063 50.0349 128.638 50.077V49.9087C129.137 49.8836 129.227 49.8162 129.227 49.4546V46.8392C129.227 46.3177 129.219 46.3009 128.646 46.2925V46.1495ZM125.414 48.067C125.414 49.3033 125.717 49.9256 126.314 49.9256C126.911 49.9256 127.23 49.2864 127.23 48.0922C127.23 46.8307 126.936 46.1999 126.339 46.1999C125.733 46.1999 125.414 46.8559 125.414 48.067ZM127.918 48.0837C127.918 49.278 127.247 50.1442 126.322 50.1442C125.381 50.1442 124.727 49.2948 124.727 48.0754C124.727 46.8392 125.398 45.9813 126.355 45.9813C127.288 45.9813 127.918 46.8223 127.918 48.0837ZM121.805 49.3117C121.805 49.7658 121.871 49.8246 122.484 49.8751V50.077C122.002 50.0265 121.764 50.0096 121.461 50.0096C121.151 50.0096 120.913 50.0265 120.439 50.077V49.8751C120.75 49.8415 120.807 49.833 120.913 49.791C121.077 49.7153 121.11 49.6312 121.11 49.3117V45.2076C121.11 44.7619 121.028 44.6862 120.439 44.6525V44.4423H123.998L124.145 45.7037H123.957C123.753 44.9048 123.564 44.703 122.992 44.703H121.805V47.0073H122.983C123.343 47.0073 123.434 46.8812 123.458 46.3177H123.663V47.966H123.458C123.442 47.411 123.327 47.2681 122.934 47.2681H121.805V49.3117ZM215.764 26.476C215.764 26.7571 215.744 27.0608 215.704 27.3871C215.665 27.7135 215.605 28.0534 215.526 28.407L213.282 38.347H208.446L210.179 30.7186C210.294 30.193 210.399 29.6888 210.492 29.2065C210.585 28.7242 210.632 28.3352 210.632 28.0398C210.632 27.5142 210.492 27.1288 210.211 26.884C209.931 26.6392 209.431 26.5169 208.712 26.5169C208.37 26.5169 207.982 26.6008 207.547 26.7685C207.113 26.9362 206.589 27.1878 205.975 27.5231L203.546 38.347H198.71L200.439 30.7186C200.537 30.2745 200.634 29.7939 200.732 29.2772C200.829 28.7605 200.878 28.3661 200.878 28.0942C200.878 27.5414 200.744 27.1402 200.475 26.8908C200.205 26.6415 199.705 26.5169 198.973 26.5169C198.593 26.5169 198.179 26.6075 197.729 26.7888C197.279 26.9702 196.772 27.2151 196.207 27.5231L193.778 38.347H188.983L192.429 23.0766H197.225L196.844 24.7628C197.812 24.1012 198.686 23.5844 199.465 23.2126C200.245 22.841 201.088 22.6551 201.995 22.6551C202.972 22.6551 203.795 22.8794 204.465 23.3281C205.134 23.7769 205.6 24.4363 205.864 25.3067C207.045 24.4275 208.102 23.7656 209.036 23.3214C209.97 22.8773 210.873 22.6551 211.746 22.6551C213.05 22.6551 214.046 22.9861 214.733 23.6477C215.42 24.3095 215.764 25.2523 215.764 26.476ZM183.095 31.1402C182.243 31.2128 181.445 31.2988 180.7 31.3985C179.956 31.4983 179.321 31.6433 178.798 31.8336C178.257 32.0331 177.845 32.3142 177.561 32.6767C177.277 33.0394 177.136 33.5197 177.136 34.1181C177.136 34.6439 177.324 35.0134 177.701 35.2263C178.078 35.4395 178.625 35.5458 179.344 35.5458C179.814 35.5458 180.317 35.4352 180.854 35.2138C181.39 34.9924 181.893 34.71 182.364 34.3665L183.095 31.1402ZM181.828 36.7308C181.528 36.9313 181.165 37.1732 180.742 37.4557C180.318 37.7383 179.925 37.9618 179.563 38.1258C179.069 38.3356 178.605 38.4949 178.173 38.6045C177.74 38.7137 177.14 38.7686 176.372 38.7686C175.136 38.7686 174.127 38.4122 173.346 37.6999C172.564 36.9872 172.174 36.0592 172.174 34.9152C172.174 33.708 172.451 32.6848 173.007 31.8451C173.562 31.0054 174.386 30.3359 175.478 29.8367C176.501 29.3647 177.719 29.0244 179.133 28.8155C180.548 28.607 182.079 28.4524 183.727 28.3526C183.736 28.2981 183.756 28.2098 183.785 28.0872C183.814 27.9649 183.829 27.8265 183.829 27.6722C183.829 27.0289 183.538 26.578 182.956 26.3197C182.373 26.0613 181.505 25.9321 180.35 25.9321C179.565 25.9321 178.698 26.0681 177.75 26.3401C176.802 26.612 176.09 26.8387 175.614 27.02H175.177L175.879 23.403C176.434 23.258 177.294 23.0949 178.459 22.9134C179.623 22.7322 180.783 22.6415 181.939 22.6415C184.267 22.6415 185.977 22.9542 187.066 23.5797C188.155 24.2052 188.7 25.1754 188.7 26.4897C188.7 26.6711 188.685 26.9067 188.654 27.1968C188.623 27.487 188.581 27.7407 188.528 27.9583L186.2 38.347H181.461L181.828 36.7308ZM166.484 28.7605C166.51 28.5967 166.53 28.4465 166.544 28.3099C166.557 28.1733 166.564 28.0322 166.564 27.8864C166.564 27.1673 166.346 26.6163 165.913 26.2339C165.479 25.8515 164.855 25.6602 164.04 25.6602C163.057 25.6602 162.231 25.9334 161.563 26.4797C160.894 27.0261 160.387 27.7863 160.042 28.7605H166.484ZM162.839 38.7686C160.305 38.7686 158.35 38.1926 156.972 37.0402C155.595 35.888 154.906 34.2957 154.906 32.2633C154.906 30.8752 155.131 29.6004 155.582 28.4391C156.032 27.2777 156.681 26.257 157.528 25.377C158.34 24.5241 159.356 23.8482 160.574 23.3492C161.792 22.8503 163.13 22.6007 164.587 22.6007C166.803 22.6007 168.473 23.0615 169.599 23.983C170.724 24.9046 171.287 26.2643 171.287 28.0617C171.287 28.6791 171.227 29.2828 171.108 29.873C170.989 30.4632 170.832 31.0488 170.637 31.6296H159.577V31.9425C159.577 33.0031 159.94 33.8325 160.665 34.4308C161.39 35.0291 162.5 35.3283 163.995 35.3283C165.038 35.3283 166.026 35.147 166.96 34.7844C167.893 34.4219 168.704 34.0184 169.394 33.5742H169.924L169.037 37.504C168.11 37.9211 167.134 38.2361 166.11 38.449C165.086 38.6619 163.996 38.7686 162.839 38.7686ZM154.167 27.7407H153.744C153.533 27.6682 153.233 27.6139 152.846 27.5775C152.458 27.5414 152.075 27.5231 151.697 27.5231C151.071 27.5231 150.468 27.5707 149.887 27.6659C149.305 27.7611 148.706 27.913 148.09 28.1214L145.782 38.347H140.987L144.433 23.0766H149.228L148.722 25.3202C149.621 24.6403 150.517 24.0875 151.411 23.6613C152.306 23.2353 153.206 23.0222 154.114 23.0222C154.281 23.0222 154.468 23.0268 154.676 23.0358C154.882 23.0449 155.065 23.0585 155.224 23.0766L154.167 27.7407ZM134.344 38.6462C132.695 38.6462 131.517 38.3674 130.811 37.8099C130.106 37.2524 129.753 36.4253 129.753 35.3283C129.753 35.0383 129.775 34.7572 129.819 34.4852C129.863 34.2133 129.92 33.8961 129.991 33.5334L131.615 26.2993H129.647L130.376 23.0766H132.339L133.319 18.7117H138.098L137.123 23.0766H141.582L140.857 26.2993H136.402L135.159 31.8065C135.069 32.1872 134.985 32.5705 134.905 32.9559C134.824 33.3415 134.784 33.67 134.784 33.9413C134.784 34.4852 134.932 34.8638 135.227 35.0767C135.522 35.2899 135.979 35.3963 136.596 35.3963C136.842 35.3963 137.166 35.3487 137.567 35.2535C137.968 35.1583 138.288 35.0519 138.526 34.934H138.923L138.182 38.211C137.643 38.347 137.077 38.4535 136.481 38.5306C135.886 38.6075 135.173 38.6462 134.344 38.6462ZM116.879 38.7142C115.194 38.7142 113.692 38.5646 112.373 38.2654C111.054 37.9663 109.914 37.5946 108.953 37.1504L109.972 32.2959H110.527C111.436 33.1482 112.503 33.8077 113.729 34.2745C114.955 34.7415 116.274 34.9748 117.686 34.9748C119.132 34.9748 120.195 34.7731 120.875 34.3696C121.554 33.9663 121.893 33.3884 121.893 32.636C121.893 32.3551 121.838 32.1124 121.728 31.9085C121.618 31.7045 121.404 31.5028 121.086 31.3033C120.769 31.104 120.334 30.9069 119.783 30.7118C119.232 30.517 118.519 30.2926 117.646 30.0387C116.684 29.7668 115.822 29.4722 115.059 29.1549C114.296 28.8377 113.646 28.4614 113.108 28.0262C112.569 27.5822 112.161 27.0699 111.884 26.4897C111.606 25.9096 111.467 25.2161 111.467 24.4092C111.467 22.3786 112.338 20.7581 114.08 19.5479C115.822 18.3377 118.206 17.7327 121.232 17.7327C122.687 17.7327 124.061 17.855 125.353 18.0998C126.646 18.3445 127.742 18.6756 128.642 19.0924L127.676 23.7565H127.133C126.445 23.1076 125.539 22.5647 124.414 22.1277C123.289 21.6907 122.061 21.472 120.729 21.472C119.423 21.472 118.413 21.6658 117.699 22.0532C116.984 22.4406 116.627 22.9767 116.627 23.6613C116.627 23.9788 116.68 24.2416 116.786 24.45C116.892 24.6586 117.108 24.8626 117.434 25.0619C117.716 25.2434 118.162 25.4405 118.771 25.6534C119.379 25.8665 120.094 26.0864 120.914 26.3129C123.119 26.9203 124.694 27.6319 125.638 28.4477C126.582 29.2636 127.054 30.3697 127.054 31.7656C127.054 32.9351 126.798 33.9641 126.286 34.8524C125.775 35.7409 125.069 36.4616 124.169 37.0145C123.225 37.6038 122.153 38.0343 120.954 38.3063C119.754 38.5782 118.396 38.7142 116.879 38.7142ZM102.758 26.652C102.502 26.5254 102.167 26.41 101.753 26.3059C101.338 26.2018 100.972 26.1497 100.655 26.1497C99.8965 26.1497 99.213 26.3218 98.6045 26.6658C97.9961 27.0098 97.4803 27.4804 97.057 28.0776C96.6779 28.6118 96.3779 29.2929 96.1575 30.1211C95.9371 30.9494 95.8269 31.7482 95.8269 32.5176C95.8269 33.4318 96.0339 34.0971 96.4482 34.5135C96.8624 34.9299 97.4925 35.1379 98.3386 35.1379C98.7704 35.1379 99.2265 35.0385 99.7067 34.8393C100.187 34.6401 100.643 34.4047 101.075 34.1332L102.758 26.652ZM109.681 17.1887L104.921 38.347H100.127L100.485 36.7561C100.026 37.0552 99.6226 37.3251 99.2742 37.5651C98.9256 37.8055 98.5398 38.0254 98.1165 38.2247C97.7193 38.4059 97.329 38.5418 96.9452 38.6326C96.5615 38.7231 96.1004 38.7686 95.5625 38.7686C94.1246 38.7686 92.9755 38.2882 92.1154 37.3272C91.2554 36.3665 90.8254 35.0019 90.8254 33.2343C90.8254 31.7839 91.0524 30.4218 91.5068 29.148C91.9612 27.8745 92.5853 26.748 93.3795 25.769C94.1558 24.8171 95.0733 24.0603 96.1321 23.4981C97.1908 22.9362 98.2981 22.6551 99.454 22.6551C100.266 22.6551 100.971 22.739 101.571 22.9066C102.171 23.0744 102.789 23.335 103.424 23.6885L104.887 17.1887H109.681ZM83.3694 31.1402C82.5181 31.2128 81.7198 31.2988 80.975 31.3985C80.23 31.4983 79.596 31.6433 79.0729 31.8336C78.5321 32.0331 78.1196 32.3142 77.8359 32.6767C77.552 33.0394 77.4102 33.5197 77.4102 34.1181C77.4102 34.6439 77.5986 35.0134 77.9755 35.2263C78.3524 35.4395 78.9001 35.5458 79.6185 35.5458C80.0884 35.5458 80.5916 35.4352 81.1283 35.2138C81.6648 34.9924 82.1681 34.71 82.6382 34.3665L83.3694 31.1402ZM82.1023 36.7308C81.8021 36.9313 81.4401 37.1732 81.0163 37.4557C80.5925 37.7383 80.1996 37.9618 79.8379 38.1258C79.3433 38.3356 78.8798 38.4949 78.4473 38.6045C78.0147 38.7137 77.4144 38.7686 76.6463 38.7686C75.4103 38.7686 74.4015 38.4122 73.6202 37.6999C72.8389 36.9872 72.4484 36.0592 72.4484 34.9152C72.4484 33.708 72.7258 32.6848 73.2811 31.8451C73.8362 31.0054 74.6601 30.3359 75.753 29.8367C76.7751 29.3647 77.9935 29.0244 79.408 28.8155C80.8224 28.607 82.3535 28.4524 84.0015 28.3526C84.011 28.2981 84.0304 28.2098 84.0596 28.0872C84.0885 27.9649 84.1032 27.8265 84.1032 27.6722C84.1032 27.0289 83.812 26.578 83.2301 26.3197C82.6479 26.0613 81.7794 25.9321 80.6241 25.9321C79.8393 25.9321 78.9728 26.0681 78.0249 26.3401C77.0768 26.612 76.3648 26.8387 75.8883 27.02H75.4519L76.1533 23.403C76.709 23.258 77.569 23.0949 78.7335 22.9134C79.8978 22.7322 81.0577 22.6415 82.2134 22.6415C84.5421 22.6415 86.2511 22.9542 87.3406 23.5797C88.43 24.2052 88.9748 25.1754 88.9748 26.4897C88.9748 26.6711 88.9592 26.9067 88.9284 27.1968C88.8974 27.487 88.8557 27.7407 88.8027 27.9583L86.4743 38.347H81.7358L82.1023 36.7308ZM64.9538 33.6693C65.3595 33.035 65.6661 32.3414 65.8735 31.5889C66.0806 30.8365 66.1843 29.921 66.1843 28.8421C66.1843 27.9085 65.9859 27.1899 65.5889 26.6869C65.192 26.1837 64.5613 25.9321 63.6968 25.9321C63.0263 25.9321 62.4375 26.1 61.9304 26.4353C61.423 26.7708 60.9754 27.2467 60.5874 27.8631C60.2256 28.4342 59.941 29.1413 59.7339 29.9844C59.5265 30.8274 59.4229 31.6932 59.4229 32.5815C59.4229 33.6241 59.6479 34.3696 60.0978 34.8184C60.5476 35.2671 61.165 35.4914 61.9503 35.4914C62.5236 35.4914 63.0749 35.3306 63.6043 35.0088C64.1334 34.6871 64.5833 34.2405 64.9538 33.6693ZM71.1463 28.6653C71.1463 30.0978 70.9124 31.4393 70.4449 32.6903C69.9774 33.9413 69.3202 35.0155 68.4735 35.913C67.5913 36.8468 66.5681 37.5651 65.4038 38.0683C64.2393 38.5714 62.8808 38.8229 61.3283 38.8229C59.1141 38.8229 57.4161 38.279 56.2341 37.1912C55.052 36.1033 54.4611 34.5987 54.4611 32.6767C54.4611 31.3169 54.6814 30.0251 55.1227 28.8013C55.5637 27.5775 56.2164 26.4988 57.0809 25.565C57.919 24.6494 58.9487 23.9264 60.1706 23.3961C61.3922 22.8658 62.7617 22.6007 64.279 22.6007C66.5019 22.6007 68.2022 23.1378 69.3798 24.212C70.5574 25.2862 71.1463 26.7708 71.1463 28.6653ZM48.3735 24.0773C48.3735 23.2636 48.1199 22.6869 47.6124 22.3478C47.1051 22.0087 46.3574 21.8392 45.3692 21.8392H42.8545L41.6291 27.2784H44.1285C45.4772 27.2784 46.5221 26.9958 47.2627 26.4306C48.0033 25.8655 48.3735 25.081 48.3735 24.0773ZM53.8515 23.199C53.8515 24.8218 53.3703 26.1861 52.4086 27.2919C51.4468 28.398 50.1408 29.232 48.4905 29.7939L53.0444 38.347H47.3731L43.6616 30.9226H40.8081L39.1354 38.347H34.0569L38.6025 18.0998H46.2933C48.7023 18.0998 50.5642 18.5192 51.8791 19.3576C53.194 20.1962 53.8515 21.4767 53.8515 23.199Z" fill="white"/>
<path d="M143.103 10.8398L143.37 9.60573H149.055L148.788 10.8398H146.747L145.583 16.2812H144.076L145.24 10.8398H143.103Z" fill="white"/>
<path d="M156.819 9.60573L156.562 10.8398H152.861L152.556 12.2703H155.98L155.732 13.4109H152.308L151.955 15.047H155.713L155.446 16.2812H150.2L151.621 9.60573H156.819Z" fill="white"/>
<path d="M161.302 9.60573L160.139 15.047H163.429L163.162 16.2812H158.374L159.795 9.60573H161.302Z" fill="white"/>
<path d="M172.281 9.60573L172.023 10.8398H168.323L168.017 12.2703H171.442L171.194 13.4109H167.769L167.416 15.047H171.175L170.907 16.2812H165.661L167.083 9.60573H172.281Z" fill="white"/>
<path d="M177.336 9.60573L177.861 14.4393H177.88L180.503 9.60573H182.592L181.152 16.2812H179.749L180.989 10.9708H180.97L178.09 16.2812H176.945L176.287 10.9708H176.268L175.247 16.2812H173.836L175.266 9.60573H177.336Z" fill="white"/>
<path d="M188.449 13.7008L188.115 11.0456H188.096L186.627 13.7008H188.449ZM189.154 9.60582L190.289 16.2812H188.802L188.582 14.7947H186.035L185.177 16.2812H183.603L187.619 9.60582H189.154Z" fill="white"/>
<path d="M192.312 10.8398L192.579 9.60573H198.264L197.997 10.8398H195.955L194.792 16.2812H193.285L194.448 10.8398H192.312Z" fill="white"/>
<path d="M202.346 9.60573L200.906 16.2812H199.408L200.839 9.60573H202.346Z" fill="white"/>
<path d="M209.037 10.9941C208.811 10.7854 208.517 10.6809 208.155 10.6809C207.773 10.6809 207.441 10.7666 207.158 10.938C206.875 11.1095 206.643 11.3307 206.462 11.6018C206.281 11.8729 206.145 12.1754 206.056 12.5087C205.967 12.8422 205.923 13.1679 205.923 13.4857C205.923 13.7164 205.953 13.9344 206.013 14.1402C206.074 14.3458 206.166 14.5282 206.29 14.6871C206.414 14.846 206.573 14.9723 206.767 15.0658C206.961 15.1592 207.195 15.206 207.468 15.206C207.672 15.206 207.864 15.1702 208.045 15.0985C208.226 15.0269 208.387 14.9302 208.527 14.8087C208.667 14.6871 208.784 14.5454 208.88 14.3832C208.975 14.2213 209.039 14.053 209.071 13.8784H210.568C210.415 14.3458 210.236 14.7417 210.029 15.0658C209.822 15.3899 209.59 15.6533 209.333 15.8558C209.075 16.0584 208.789 16.205 208.474 16.2952C208.16 16.3855 207.818 16.4308 207.449 16.4308C206.482 16.4308 205.737 16.1783 205.212 15.6735C204.688 15.1686 204.425 14.4393 204.425 13.4857C204.425 12.9434 204.511 12.4292 204.683 11.9431C204.855 11.4569 205.101 11.0285 205.422 10.6575C205.743 10.2868 206.134 9.99227 206.595 9.77401C207.056 9.55595 207.573 9.44682 208.145 9.44682C208.54 9.44682 208.905 9.49986 209.242 9.60575C209.579 9.71183 209.87 9.86914 210.115 10.0779C210.36 10.2868 210.549 10.5453 210.683 10.8539C210.816 11.1624 210.88 11.5193 210.873 11.9244H209.376C209.376 11.513 209.263 11.203 209.037 10.9941Z" fill="white"/>
<path d="M214.507 14.6591C214.577 14.818 214.679 14.9442 214.813 15.0377C214.946 15.1312 215.105 15.1982 215.29 15.2387C215.474 15.2794 215.674 15.2995 215.89 15.2995C216.043 15.2995 216.196 15.2808 216.348 15.2434C216.501 15.2061 216.639 15.15 216.763 15.0751C216.887 15.0003 216.989 14.9038 217.068 14.7853C217.148 14.667 217.188 14.5235 217.188 14.3552C217.188 14.1933 217.137 14.0607 217.035 13.9579C216.933 13.855 216.801 13.7663 216.639 13.6914C216.477 13.6166 216.293 13.5512 216.086 13.4951C215.879 13.439 215.671 13.3799 215.461 13.3175C215.245 13.2552 215.035 13.1805 214.832 13.093C214.628 13.0058 214.445 12.8936 214.283 12.7565C214.121 12.6195 213.991 12.4511 213.892 12.2516C213.794 12.0522 213.744 11.8091 213.744 11.5224C213.744 11.1484 213.824 10.8305 213.983 10.5688C214.142 10.307 214.348 10.0935 214.603 9.92828C214.857 9.76325 215.145 9.64165 215.466 9.56366C215.787 9.48587 216.113 9.44682 216.444 9.44682C216.793 9.44682 217.122 9.48587 217.431 9.56366C217.739 9.64165 218.009 9.76792 218.242 9.94237C218.474 10.1169 218.658 10.3396 218.795 10.6108C218.932 10.8819 219 11.2107 219 11.5972H217.579C217.585 11.4101 217.558 11.2528 217.498 11.125C217.437 10.9974 217.351 10.8929 217.24 10.8119C217.129 10.7309 216.997 10.6732 216.844 10.6388C216.692 10.6046 216.53 10.5874 216.358 10.5874C216.218 10.5874 216.076 10.6014 215.933 10.6295C215.79 10.6576 215.662 10.7043 215.547 10.7698C215.433 10.8352 215.34 10.921 215.27 11.0269C215.2 11.133 215.166 11.2638 215.166 11.4195C215.166 11.5816 215.228 11.7172 215.352 11.8262C215.476 11.9353 215.625 12.0258 215.8 12.0974C215.975 12.1691 216.154 12.2252 216.339 12.2656C216.523 12.3063 216.673 12.339 216.787 12.3638C217.054 12.4325 217.299 12.512 217.522 12.6023C217.744 12.6926 217.937 12.8096 218.099 12.9529C218.261 13.0963 218.386 13.2707 218.475 13.4764C218.564 13.6821 218.609 13.9345 218.609 14.2337C218.609 14.6326 218.525 14.9723 218.356 15.2528C218.188 15.5332 217.971 15.7608 217.708 15.9353C217.444 16.1098 217.146 16.2361 216.816 16.3139C216.485 16.3918 216.158 16.4308 215.833 16.4308C214.879 16.4308 214.169 16.2408 213.701 15.8604C213.234 15.4804 213 14.882 213 14.0654H214.422C214.409 14.3024 214.437 14.5002 214.507 14.6591Z" fill="white"/>
</svg>
