<svg width="219" height="48" viewBox="0 0 219 48" fill="none" xmlns="http://www.w3.org/2000/svg">
<path d="M19.1665 18.0414C18.9094 18.5411 18.6482 19.5062 18.5861 20.1857C18.4734 21.4199 18.4716 21.4223 16.9438 22.5782C15.3687 23.7696 14.1382 25.2116 13.2366 26.9227C12.4566 28.403 12.5125 30.9099 13.3655 32.6881C14.2473 34.5265 16.7762 36.9575 19.4582 38.5451C28.0675 43.6413 42.1148 46.5361 58.5053 46.592C64.6548 46.6129 64.8384 46.6939 59.9827 47.2436C45.3619 48.8986 29.3395 47.8002 17.2818 44.3159C10.4341 42.3374 4.05893 38.8893 1.81141 35.9485C0.335726 34.0178 0.00606564 33.1273 0.000143596 31.0564C-0.0042431 29.5552 0.0902903 29.0145 0.50264 28.1839C2.53522 24.0907 8.31622 20.5005 17.1028 17.8747C18.4297 17.4781 19.5422 17.1489 19.5747 17.143C19.6074 17.1372 19.4238 17.5414 19.1665 18.0414Z" fill="white"/>
<path d="M36.6146 0.927481C37.0609 1.46769 37.7095 2.05511 38.0558 2.23285C39.4936 2.97017 41.3741 2.38928 42.2353 0.941406C42.7928 0.0041478 43.113 -0.111378 44.3198 0.190163C45.4748 0.47865 45.5468 0.57242 45.7494 2.0538C45.8354 2.68125 46.1107 3.48036 46.3614 3.82954C47.2464 5.06247 49.5452 5.47845 50.6957 4.61364C51.3337 4.13413 51.8996 4.24182 52.6793 4.99154C53.4718 5.75323 53.5885 6.44899 53.0737 7.34209C52.6045 8.15642 52.6664 9.66717 53.2046 10.5307C53.765 11.4303 54.5875 11.8778 55.8761 11.9842C57.1487 12.0895 57.2935 12.1974 57.5806 13.2548C57.8751 14.3404 57.7115 15.1006 57.1443 15.279C56.4148 15.5087 55.4309 16.8234 55.2666 17.7881L55.1117 18.6969L54.4217 18.0433C54.0423 17.6837 53.2079 17.1115 52.5679 16.7715C51.4524 16.179 51.3813 16.0868 50.8626 14.5573C47.6616 5.11969 35.1211 3.34569 29.4978 11.5347C26.9704 15.2152 26.6664 19.4947 28.6409 23.5981C29.3175 25.0044 31.4337 27.4137 32.7666 28.2953L33.2963 28.6456L32.903 30.5038C32.687 31.5257 32.4755 32.3617 32.4336 32.3617C32.3915 32.3617 32.034 32.1664 31.639 31.9275C30.7908 31.4145 29.2046 31.3607 28.3985 31.8178C27.4598 32.3502 26.7564 32.2199 26.0086 31.3751C25.2063 30.4689 25.1905 30.3275 25.7665 29.2071C26.3133 28.1432 26.3232 27.2451 25.799 26.2665C25.2361 25.2159 24.152 24.5302 23.0472 24.5262C21.8544 24.5217 21.634 24.3504 21.2682 23.1449C20.8931 21.9085 20.9839 21.6298 21.9457 21.067C24.0612 19.8291 24.1064 16.5617 22.0231 15.4931C21.1252 15.0325 20.9139 14.533 21.1888 13.5193C21.4767 12.4572 21.8663 12.0499 22.6386 12.0036C22.9717 11.9833 23.4777 11.9544 23.7635 11.939C24.0491 11.9235 24.6578 11.5389 25.1162 11.0844C26.0712 10.1369 26.4195 8.92811 26.0181 7.95322C25.1888 5.93903 25.2022 6.13244 25.8351 5.30918C26.6342 4.27011 27.0987 4.17112 28.4902 4.74309C30.0383 5.37967 31.0435 5.20475 32.1509 4.1065C32.794 3.46839 32.9934 3.07438 33.105 2.22067C33.2899 0.806081 33.4371 0.569809 34.3353 0.248035C35.5306 -0.180563 35.7546 -0.113771 36.6146 0.927481Z" fill="white"/>
<path d="M42.0122 8.56304C45.3261 9.53816 47.8597 11.7967 48.8903 14.6942L49.2158 15.6094H48.4018C47.6423 15.6094 47.5552 15.5392 47.1023 14.5599C46.3151 12.8579 45.0215 11.5843 43.1459 10.6647C41.5619 9.88822 41.3584 9.84405 39.3721 9.84405C37.4408 9.84405 37.1583 9.90083 35.8513 10.5513C34.2126 11.3668 33.5693 11.8933 32.4775 13.3122C30.0898 16.4149 30.4074 21.1838 33.1954 24.0909C33.9981 24.9279 34.0903 25.1274 33.9698 25.7644C33.8946 26.1621 33.7369 26.4876 33.6191 26.4876C33.2234 26.4876 31.1457 24.1903 30.5443 23.0875C28.4073 19.1696 29.0445 14.5845 32.1772 11.337C33.5 9.96567 35.4074 8.84522 37.0809 8.45579C38.4594 8.1351 40.7258 8.18427 42.0122 8.56304Z" fill="white"/>
<path fill-rule="evenodd" clip-rule="evenodd" d="M49.3538 18.7715C52.3178 19.5284 53.622 21.0204 53.622 23.6547C53.622 24.4523 53.4632 25.5673 53.2689 26.1325C52.8063 27.4794 51.1308 29.1764 49.5588 29.8902C48.7157 30.2731 48.3986 30.5222 48.5332 30.6961C48.6403 30.8345 49.685 32.7834 50.8549 35.0269L52.9818 39.1062H50.0109H47.0402L45.193 35.2988L43.3457 31.4915H42.0282C40.9642 31.4915 40.6883 31.5648 40.5942 31.8722C40.5299 32.0817 40.1744 33.6236 39.8039 35.2988C39.4335 36.9741 39.0779 38.5159 39.0137 38.7254C38.911 39.0605 38.5809 39.1062 36.265 39.1062C33.8602 39.1062 33.643 39.0733 33.7494 38.7254C33.8135 38.5159 34.8132 34.037 35.9713 28.772C37.1294 23.507 38.1267 19.028 38.1874 18.8185C38.2885 18.4706 38.7187 18.4378 43.1722 18.4378C46.8389 18.4378 48.3703 18.5204 49.3538 18.7715ZM41.6621 26.9771C41.7461 26.5285 42.0126 25.3047 42.2546 24.2575L42.6945 22.3539H44.4512C46.6323 22.3539 47.5776 22.7407 47.9213 23.7737C48.0963 24.3002 48.0974 24.7438 47.9248 25.3797C47.4927 26.971 45.8135 27.7766 42.9051 27.7877L41.5097 27.7929L41.6621 26.9771Z" fill="white"/>
<path fill-rule="evenodd" clip-rule="evenodd" d="M68.548 23.5857C70.913 24.6422 72.049 26.4897 72.0428 29.2697C72.0334 33.5527 69.9344 37.0754 66.4035 38.7344C64.9866 39.4001 64.7952 39.4325 62.271 39.4325C59.7588 39.4325 59.5579 39.399 58.323 38.775C55.8803 37.5406 54.8834 35.177 55.3427 31.7091C55.8904 27.5752 58.5463 24.3652 62.2857 23.3183C63.8919 22.8688 67.2655 23.0127 68.548 23.5857ZM60.465 32.3054C60.6135 29.5987 61.7041 27.539 63.3824 26.7958C64.2453 26.4138 64.9099 26.4162 65.6655 26.8037C66.5272 27.2458 66.899 28.2703 66.8532 30.0773C66.7882 32.6367 65.7225 34.8295 64.1586 35.6208C63.1137 36.1497 62.5851 36.1699 61.6262 35.7187C60.6144 35.2425 60.347 34.4564 60.465 32.3054Z" fill="white"/>
<path fill-rule="evenodd" clip-rule="evenodd" d="M87.0706 23.5472C89.0821 24.2321 89.9162 25.4061 89.7642 27.3382C89.7116 28.0072 89.1415 30.9284 88.4973 33.8303L87.3263 39.1062H84.8461H82.3658L82.4961 38.4602L82.6264 37.8143L81.0994 38.5912C78.3329 39.9993 75.5408 39.8119 74.0412 38.1176C73.2775 37.2547 73.038 36.2609 73.2055 34.6492C73.556 31.2809 76.1229 29.7014 82.3103 29.0465L84.7882 28.7841L84.723 28.1469C84.6824 27.7499 84.4245 27.3374 84.0387 27.053C83.1399 26.3903 80.4326 26.4223 78.1292 27.1228C77.1922 27.4076 76.362 27.5778 76.2843 27.5005C76.158 27.3752 76.5686 24.5719 76.8031 23.9599C76.8544 23.8261 77.6556 23.5979 78.5836 23.453C79.5118 23.3079 80.4192 23.1532 80.6002 23.1093C81.4885 22.8926 86.0561 23.2019 87.0706 23.5472ZM78.4979 33.7863C78.8525 32.9444 79.3754 32.61 80.9292 32.231C82.2663 31.9051 83.8902 31.8516 83.8902 32.1335C83.8902 32.6974 83.3699 34.6836 83.1517 34.9525C82.7273 35.4759 81.1928 36.0505 80.2065 36.0555C79.4945 36.0592 79.1326 35.9298 78.726 35.5262C78.0995 34.905 78.0822 34.7732 78.4979 33.7863Z" fill="white"/>
<path fill-rule="evenodd" clip-rule="evenodd" d="M110.955 17.9482C110.905 18.1578 109.878 22.7836 108.674 28.2281C107.47 33.6726 106.433 38.3473 106.37 38.6167C106.258 39.0888 106.165 39.1062 103.774 39.1062H101.294L101.396 38.4171L101.498 37.7281L100.709 38.2118C99.2311 39.1177 98.4869 39.4049 97.3826 39.4956C95.2237 39.6734 93.7693 38.9621 92.7448 37.2284C91.5998 35.2903 91.8229 31.3277 93.2473 28.307C93.9976 26.716 96.3976 24.2602 97.8063 23.6418C99.3924 22.9461 101.481 22.8628 103.163 23.4286C103.93 23.6871 104.585 23.8692 104.617 23.8333C104.649 23.7974 104.84 23.0338 105.042 22.1363C105.245 21.2389 105.56 19.8439 105.744 19.0361L106.078 17.5675H108.563C110.817 17.5675 111.038 17.6028 110.955 17.9482ZM97.2966 31.8526C97.714 29.256 98.969 27.4446 100.71 26.9264C101.049 26.8252 101.525 26.7347 101.766 26.7251C102.357 26.7014 103.849 27.1228 103.85 27.3136C103.851 27.3978 103.494 29.0924 103.057 31.0796L102.263 34.6929L101.296 35.1589C100.764 35.4154 99.9905 35.6252 99.577 35.6252C97.6052 35.6252 96.8823 34.4292 97.2966 31.8526Z" fill="white"/>
<path d="M127.318 18.5522C129.728 19.1211 130.207 19.3448 130.089 19.8454C130.032 20.0884 129.807 21.1553 129.588 22.2168C129.37 23.2781 129.067 24.1938 128.916 24.2515C128.764 24.3091 128.18 24.0546 127.618 23.6854C125.869 22.5358 124.37 22.0915 122.164 22.0687C120.132 22.0475 119.553 22.2103 118.6 23.0716C118.111 23.5137 117.98 24.1662 118.243 24.8474C118.435 25.3438 119.581 25.8716 122.446 26.7841C125.371 27.7155 125.968 28.0018 127.1 29.0163C128.134 29.9427 128.486 30.9152 128.454 32.7564C128.402 35.7936 126.222 38.0928 122.545 38.988C119.381 39.7582 115.398 39.5835 112.004 38.5259C110.377 38.019 110.191 37.907 110.29 37.4982C110.352 37.2458 110.578 36.1225 110.792 35.0021C111.022 33.8018 111.303 32.9187 111.477 32.8528C111.638 32.7912 112.207 33.0514 112.74 33.4311C115.023 35.058 117.929 35.8079 120.402 35.4087C122.354 35.0937 123.257 34.3122 123.11 33.0651C123.013 32.244 122.001 31.6451 119.186 30.7439C116.156 29.7736 114.85 29.1153 113.959 28.1091C113.02 27.048 112.842 26.5169 112.845 24.7873C112.849 21.4236 115.204 19.1211 119.462 18.3151C121.403 17.9476 125.251 18.0638 127.318 18.5522Z" fill="white"/>
<path d="M139.601 19.1907C139.601 19.246 139.404 20.1308 139.163 21.1573C138.921 22.1837 138.724 23.1175 138.724 23.2326C138.724 23.3525 139.669 23.4417 140.943 23.4417C143.137 23.4417 143.16 23.4471 143.03 23.9312C142.957 24.2005 142.785 24.9838 142.646 25.6717L142.396 26.9227H140.121C138.87 26.9227 137.847 26.9575 137.847 26.9999C137.847 27.0426 137.501 28.6301 137.079 30.5279C136.047 35.1657 136.064 35.4603 137.377 35.8338C137.871 35.9744 138.387 35.9437 139.099 35.7311C139.657 35.5643 140.185 35.4709 140.271 35.5238C140.357 35.5764 140.26 36.3797 140.055 37.3085C139.616 39.3031 139.701 39.2604 136.092 39.2933C132.636 39.3246 131.345 38.5845 131.112 36.438C131.048 35.844 131.33 34.0579 131.907 31.4132C132.399 29.1562 132.802 27.2227 132.802 27.1163C132.802 27.0097 132.407 26.9227 131.925 26.9227C130.955 26.9227 130.89 26.778 131.247 25.3997C131.355 24.9809 131.504 24.3689 131.578 24.04C131.701 23.4978 131.805 23.4417 132.682 23.4417C133.776 23.4417 133.679 23.5999 134.252 20.8853L134.631 19.0904H137.116C138.483 19.0904 139.601 19.1357 139.601 19.1907Z" fill="white"/>
<path d="M150.472 24.4033L150.327 25.3649L152.211 24.4033C153.826 23.5794 154.284 23.4417 155.417 23.4417C156.571 23.4417 156.725 23.4902 156.631 23.8224C156.572 24.0319 156.315 25.14 156.059 26.285L155.595 28.3666L153.713 28.2687C152.662 28.2139 151.316 28.2848 150.666 28.4291L149.502 28.6875L149.264 29.8176C149.132 30.4391 148.615 32.7834 148.115 35.0269L147.205 39.1062H144.695C142.203 39.1062 142.187 39.1029 142.308 38.6167C142.376 38.3473 143.13 34.9942 143.985 31.1651C144.839 27.3361 145.591 24.0319 145.655 23.8224C145.757 23.4898 146.078 23.4417 148.195 23.4417H150.618L150.472 24.4033Z" fill="white"/>
<path fill-rule="evenodd" clip-rule="evenodd" d="M169.024 23.3592C172.204 24.2443 173.533 27.2271 172.526 31.2195L172.238 32.3617H166.65H161.061L161.205 33.0688C161.552 34.7721 163.161 35.8443 165.365 35.8403C166.875 35.8377 168.117 35.5073 169.918 34.6294C170.608 34.2928 171.239 34.0831 171.32 34.1632C171.401 34.2432 171.286 35.1924 171.065 36.2722L170.663 38.2357L169.507 38.665C167.25 39.5023 164.138 39.7617 161.929 39.2965C157.719 38.4095 155.793 35.5323 156.486 31.1651C157.105 27.2673 159.658 24.3222 163.289 23.3183C164.712 22.9252 167.537 22.9452 169.024 23.3592ZM161.754 29.1962C161.754 28.5337 163.243 26.8781 164.167 26.5139C165.229 26.0946 166.494 26.2269 167.221 26.8333C167.786 27.3054 167.895 27.5517 167.895 28.3562V29.3159H164.825C163.136 29.3159 161.754 29.2621 161.754 29.1962Z" fill="white"/>
<path fill-rule="evenodd" clip-rule="evenodd" d="M187.526 23.5472C189.537 24.2321 190.372 25.4061 190.22 27.3382C190.167 28.0072 189.597 30.9284 188.953 33.8303L187.782 39.1062H185.301H182.821L182.951 38.4602L183.082 37.8143L181.555 38.5912C178.788 39.9993 175.996 39.8119 174.497 38.1176C173.733 37.2547 173.493 36.2609 173.661 34.6492C174.011 31.2809 176.578 29.7014 182.766 29.0465L185.243 28.7841L185.178 28.1469C185.138 27.7499 184.88 27.3374 184.494 27.053C183.595 26.3903 180.888 26.4223 178.585 27.1228C177.647 27.4076 176.817 27.5778 176.74 27.5005C176.613 27.3752 177.024 24.5719 177.258 23.9599C177.31 23.8261 178.111 23.5979 179.039 23.453C179.967 23.3079 180.875 23.1532 181.056 23.1093C181.944 22.8926 186.511 23.2019 187.526 23.5472ZM178.953 33.7863C179.308 32.9444 179.831 32.61 181.385 32.231C182.722 31.9051 184.346 31.8516 184.346 32.1335C184.346 32.6974 183.825 34.6836 183.607 34.9525C183.183 35.4759 181.648 36.0505 180.662 36.0555C179.95 36.0592 179.588 35.9298 179.181 35.5262C178.555 34.905 178.538 34.7732 178.953 33.7863Z" fill="white"/>
<path d="M207.478 23.6218C207.844 23.8324 208.382 24.367 208.673 24.8097L209.202 25.6147L209.879 25.1026C211.745 23.6912 214.43 22.8014 215.962 23.0866C217.89 23.4454 219 24.8672 219 26.9797C219 27.9552 217.266 36.6967 216.67 38.7254C216.572 39.0596 216.249 39.1062 214.036 39.1062C211.735 39.1062 211.524 39.0729 211.632 38.7254C212.03 37.4473 213.736 29.2271 213.736 28.5888C213.736 27.1457 212.132 26.7112 210.227 27.6387L209.24 28.1193L208.03 33.5583L206.821 38.9974L204.356 39.059C202.405 39.1077 201.892 39.0594 201.892 38.8273C201.892 38.6658 202.336 36.5611 202.879 34.1499C203.422 31.7386 203.866 29.3542 203.866 28.8509C203.866 27.1355 202.695 26.6921 200.563 27.6017C199.308 28.1371 199.54 27.5147 198.038 34.3742L197.002 39.1062H194.488C191.992 39.1062 191.976 39.1029 192.097 38.6167C192.165 38.3473 192.919 34.9942 193.774 31.1651C194.628 27.3361 195.38 24.0319 195.444 23.8224C195.547 23.4898 195.867 23.4417 197.988 23.4417H200.414L200.292 24.1903L200.169 24.9392L201.601 24.1586C202.389 23.7291 203.344 23.299 203.724 23.2026C204.713 22.952 206.699 23.1739 207.478 23.6218Z" fill="white"/>
</svg>
